Coordinates
version=1
nRows=11
nColumns=36
inDegrees=yes

Units are S.I. units (second, meters, Newtons, ...)
If the header above contains a line with 'inDegrees', this indicates whether rotational values are in degrees (yes) or radians (no).

endheader
time	pelvis_tilt	pelvis_list	pelvis_rotation	pelvis_tx	pelvis_ty	pelvis_tz	hip_flexion_r	hip_adduction_r	hip_rotation_r	knee_angle_r	knee_angle_r_beta	ankle_angle_r	subtalar_angle_r	mtp_angle_r	hip_flexion_l	hip_adduction_l	hip_rotation_l	knee_angle_l	knee_angle_l_beta	ankle_angle_l	subtalar_angle_l	mtp_angle_l	lumbar_extension	lumbar_bending	lumbar_rotation	arm_flex_r	arm_add_r	arm_rot_r	elbow_flex_r	pro_sup_r	arm_flex_l	arm_add_l	arm_rot_l	elbow_flex_l	pro_sup_l
     15.00000000	     -1.86061722	     -4.09865818	      1.79408459	      0.75036802	      1.03276930	      0.88238342	      3.27866682	      6.01287014	     -8.82577971	     11.34102843	      0.19793829	     15.34014493	      0.84235354	     -7.49999987	     26.10009583	     -8.45418355	      0.71339365	     52.76832891	      0.92098108	      3.34646742	    -13.08379919	     -7.49999987	     -9.75536385	      7.35015443	      7.19263991	      9.48872572	    -12.33846362	     -0.98321421	     25.00983023	     71.03809842	      0.84733496	     -4.14771985	     -5.14106570	     16.08947418	     68.08386447
     15.01666670	     -1.57369425	     -3.70801805	      1.65384165	      0.74962133	      1.03467041	      0.88331679	      1.94777806	      5.65995555	     -8.85206097	     10.66570246	      0.18615163	     14.90499349	      1.07660979	     -7.49999987	     26.05130895	     -8.22748308	     -0.09208493	     48.73216928	      0.85053681	      4.03262107	    -12.61629989	     -7.49999987	    -10.58709582	      6.87695169	      7.51641434	      9.79604901	    -12.44672767	     -1.03844859	     25.73056422	     71.49085548	      0.44940829	     -4.24140018	     -4.77827358	     16.27071512	     68.18442362
     15.03333330	     -1.43210292	     -3.43604905	      1.48210883	      0.74926915	      1.03369625	      0.88301753	      0.75974729	      5.42839516	     -8.67603372	      9.88996499	      0.17261245	     14.34956608	      0.97174525	     -7.49999987	     26.13717938	     -8.14741775	     -1.02847625	     44.49233516	      0.77653774	      4.43013765	    -11.89230958	     -7.49999987	    -11.20294815	      6.51304756	      7.84963132	     10.04515260	    -12.52047275	     -1.13332901	     26.18982802	     71.82242657	      0.08086401	     -4.28102306	     -4.49825636	     16.19153733	     68.33803826
     15.05000000	     -1.61243970	     -3.27831115	      1.49258644	      0.74856047	      1.03040107	      0.88084911	     -0.06728510	      5.25940017	     -8.71693047	      9.10266132	      0.15887141	     14.01161423	      0.99389155	     -7.49999987	     26.65384803	     -7.99932542	     -1.78607962	     40.21295029	      0.70184838	      4.73676964	    -10.89938417	     -7.49999987	    -11.31197917	      6.35548735	      7.90278340	     10.17988453	    -12.56445358	     -1.16467896	     26.49731879	     71.98337940	     -0.27666303	     -4.21579893	     -4.33095099	     15.93620821	     68.42365528
     15.06666670	     -1.42086940	     -3.15786506	      1.52886996	      0.74725999	      1.02804721	      0.87802170	     -1.28018679	      5.14041037	     -8.49472628	      8.32669489	      0.14532824	     14.07476741	      0.90723415	     -7.49999987	     26.75708505	     -7.82166121	     -2.63881225	     35.86343426	      0.62593501	      5.49381514	     -8.98475677	     -7.49999987	    -12.01601896	      6.25279954	      8.00239288	     10.21318460	    -12.70382240	     -1.27119762	     27.27791607	     72.27486202	     -0.54858637	     -4.12977352	     -3.85337872	     16.14450681	     68.55119580
     15.08333330	     -1.48933219	     -3.03503531	      1.71480668	      0.74629088	      1.02759949	      0.87587111	     -2.20781288	      4.99063352	     -8.42649471	      7.66818804	      0.13383513	     14.30356646	      0.85334322	     -7.49999987	     27.03818500	     -7.40364845	     -3.15159589	     31.31928891	      0.54662471	      6.17449010	     -7.01159427	     -7.49999987	    -12.21537727	      6.25610650	      8.01395397	     10.05527691	    -12.78508316	     -1.68723480	     27.85104708	     72.78171417	     -0.67755753	     -4.06868099	     -2.75638838	     16.11168640	     68.37451552
     15.10000000	     -1.70372368	     -2.96372819	      1.97055188	      0.74578327	      1.02815476	      0.87500980	     -3.03500158	      4.90024628	     -8.60145355	      7.09236603	      0.12378514	     14.70340552	      1.08794993	     -7.49999987	     27.29815555	     -6.92488099	     -3.43901976	     26.59757080	      0.46421518	      6.85081727	     -4.70237874	     -7.49999987	    -12.12099129	      6.35046248	      7.68193064	     10.09369972	    -12.76908765	     -1.75235042	     27.92502153	     72.76382244	     -0.80500566	     -3.93934008	     -2.41200990	     15.95658590	     68.09971619
     15.11666670	     -2.06277591	     -2.90406572	      2.21137535	      0.74575230	      1.02738182	      0.87463234	     -3.85863514	      4.84598652	     -8.84673837	      6.51610095	      0.11372742	     14.82091273	      1.33756627	     -7.49999987	     27.47338175	     -6.39495037	     -3.50900719	     21.70602954	      0.37884168	      7.32629829	     -2.40367737	     -7.49999987	    -11.65139696	      6.45231487	      7.40888529	      9.97687188	    -12.76684930	     -1.65799323	     27.77639526	     72.55750791	     -0.94208812	     -3.80705736	     -2.06596955	     15.77718580	     67.75868963
     15.13333330	     -2.53319798	     -2.92225022	      2.38337124	      0.74603128	      1.02476080	      0.87424445	     -4.70103856	      4.91937963	     -8.80086724	      5.94695823	      0.10379400	     14.36072282	      1.19829433	     -7.49999987	     27.66209766	     -5.98594832	     -3.54391520	     17.09222645	      0.29831563	      7.66976661	     -0.11902896	     -7.49999987	    -10.93720469	      6.63398519	      6.94720558	      9.95415267	    -12.72696163	     -0.99221629	     27.52603739	     72.42577222	     -1.22416518	     -3.76850450	     -1.22776407	     15.67926001	     67.35392385
     15.15000000	     -3.12997599	     -2.97553740	      2.73048928	      0.74719238	      1.02191116	      0.87346268	     -5.44686511	      5.05805109	     -9.04429660	      5.48129477	      0.09566664	     13.69339206	      1.38167510	     -7.49999987	     27.99788708	     -5.52859431	     -2.94543014	     13.19893607	      0.23036489	      7.96129860	      1.48920957	     -7.49999987	     -9.95985987	      6.73760146	      6.56380651	      9.69617106	    -12.61658045	     -0.53220331	     27.14014468	     72.11323121	     -1.45761084	     -3.81343233	     -0.85020011	     15.52068167	     66.92412352
     15.16666670	     -3.70588376	     -2.84297589	      3.02644821	      0.74946215	      1.02073945	      0.87230623	     -6.08453089	      4.99545439	     -9.21276040	      5.24684733	      0.09157476	     12.92305766	      1.43863824	     -7.49999987	     28.32086874	     -5.01171349	     -2.50819785	     10.46170038	      0.18259112	      8.39992418	      2.86120798	     -7.49999987	     -8.96787328	      6.52085524	      6.36081225	      9.28102333	    -12.44091942	     -0.20034696	     26.81268231	     71.48364022	     -1.68894017	     -3.95519293	     -0.75133566	     15.66409736	     66.39487127
